<svg width="497" height="496" viewBox="0 0 497 496" fill="none" xmlns="http://www.w3.org/2000/svg">
<path d="M395.636 216.727C382.783 216.727 372.363 227.147 372.363 240V449.455H46.545V123.636H256C268.853 123.636 279.273 113.216 279.273 100.363C279.273 87.51 268.853 77.091 256 77.091H23.273C10.42 77.091 0 87.511 0 100.364V472.728C0 485.58 10.42 496 23.273 496H395.637C408.49 496 418.91 485.58 418.91 472.727V240C418.909 227.147 408.489 216.727 395.636 216.727Z" fill="#BEE3EC"/>
<path d="M473.727 0H287.545C274.692 0 264.272 10.42 264.272 23.273C264.272 36.126 274.692 46.546 287.545 46.546H417.542L177.999 286.09C168.912 295.177 168.912 309.913 177.999 319.002C182.542 323.545 188.498 325.818 194.454 325.818C200.41 325.818 206.367 323.545 210.909 319.001L450.455 79.458V209.455C450.455 222.308 460.875 232.728 473.728 232.728C486.581 232.728 497.001 222.308 497.001 209.455V23.273C497 10.42 486.58 0 473.727 0Z" fill="#BEE3EC"/>
</svg>
