<svg xmlns="http://www.w3.org/2000/svg" width="38.342" height="37.404" viewBox="0 0 38.342 37.404"><defs><style>.a{fill:#bee3ec;}</style></defs><path class="a" d="M35.77,14.913a19.087,19.087,0,0,0-6.977-6.977,18.751,18.751,0,0,0-9.623-2.571A18.753,18.753,0,0,0,9.548,7.936a19.085,19.085,0,0,0-6.977,6.977A18.752,18.752,0,0,0,0,24.535a18.631,18.631,0,0,0,3.657,11.27A18.776,18.776,0,0,0,13.1,42.732a1.117,1.117,0,0,0,1-.175.976.976,0,0,0,.324-.749q0-.075-.013-1.348T14.4,38.24l-.574.1a7.324,7.324,0,0,1-1.385.087,10.555,10.555,0,0,1-1.735-.175A3.877,3.877,0,0,1,9.036,37.5a3.167,3.167,0,0,1-1.1-1.535l-.25-.574A6.237,6.237,0,0,0,6.9,34.121a3.012,3.012,0,0,0-1.086-.948l-.175-.125a1.833,1.833,0,0,1-.324-.3,1.369,1.369,0,0,1-.225-.349q-.075-.175.125-.288A1.619,1.619,0,0,1,5.941,32l.5.075a3.644,3.644,0,0,1,1.236.6,4.029,4.029,0,0,1,1.211,1.3,4.4,4.4,0,0,0,1.385,1.56,2.939,2.939,0,0,0,1.635.536,7.1,7.1,0,0,0,1.423-.124,4.964,4.964,0,0,0,1.123-.375A4.044,4.044,0,0,1,15.675,33a17.092,17.092,0,0,1-2.559-.449,10.187,10.187,0,0,1-2.346-.974A6.72,6.72,0,0,1,8.761,29.9a8.037,8.037,0,0,1-1.31-2.621,12.464,12.464,0,0,1-.512-3.744,7.281,7.281,0,0,1,1.972-5.142A6.71,6.71,0,0,1,9.086,13.3a3.5,3.5,0,0,1,2.147.337,15.009,15.009,0,0,1,2.084.961q.662.4,1.061.674a18.028,18.028,0,0,1,9.586,0l.949-.6a13.434,13.434,0,0,1,2.3-1.1,3.271,3.271,0,0,1,2.023-.274,6.646,6.646,0,0,1,.2,5.092A7.282,7.282,0,0,1,31.4,23.537a12.6,12.6,0,0,1-.512,3.756,7.725,7.725,0,0,1-1.322,2.621,6.978,6.978,0,0,1-2.022,1.66,10.207,10.207,0,0,1-2.347.974,17.074,17.074,0,0,1-2.558.45,4.446,4.446,0,0,1,1.3,3.544v5.266a.994.994,0,0,0,.312.749,1.084,1.084,0,0,0,.986.174A18.773,18.773,0,0,0,34.685,35.8a18.635,18.635,0,0,0,3.657-11.27A18.768,18.768,0,0,0,35.77,14.913Z" transform="translate(0 -5.365)"/></svg>