<svg xmlns="http://www.w3.org/2000/svg" xmlns:xlink="http://www.w3.org/1999/xlink" width="61.428" height="36.953" viewBox="0 0 61.428 36.953"><defs><style>.a{fill:#bee3ec;}.b{clip-path:url(#a);}</style><clipPath id="a"><rect class="a" width="61.428" height="36.953"/></clipPath></defs><g class="b"><g transform="translate(12.241)"><path class="a" d="M37.864,10.864A13.5,13.5,0,0,0,37,6.381,9.466,9.466,0,0,0,31.6.975,13.537,13.537,0,0,0,27.115.116C25.137.022,24.509,0,19.492,0s-5.645.022-7.616.108A13.506,13.506,0,0,0,7.394.967,9.016,9.016,0,0,0,4.116,3.1a9.1,9.1,0,0,0-2.13,3.27,13.539,13.539,0,0,0-.859,4.483c-.094,1.978-.116,2.606-.116,7.623s.022,5.645.108,7.616a13.5,13.5,0,0,0,.859,4.483,9.464,9.464,0,0,0,5.407,5.407,13.539,13.539,0,0,0,4.483.859c1.97.087,2.6.108,7.616.108s5.645-.021,7.616-.108a13.5,13.5,0,0,0,4.483-.859,9.452,9.452,0,0,0,5.407-5.407,13.548,13.548,0,0,0,.859-4.483c.087-1.971.108-2.6.108-7.616s-.007-5.645-.094-7.616ZM34.536,25.952A10.129,10.129,0,0,1,33.9,29.38a6.13,6.13,0,0,1-3.508,3.508,10.165,10.165,0,0,1-3.429.635c-1.949.087-2.534.108-7.464.108s-5.522-.021-7.464-.108a10.123,10.123,0,0,1-3.429-.635A5.686,5.686,0,0,1,6.484,31.51a5.745,5.745,0,0,1-1.379-2.122,10.166,10.166,0,0,1-.635-3.429c-.087-1.949-.108-2.534-.108-7.464s.021-5.522.108-7.464A10.123,10.123,0,0,1,5.105,7.6,5.617,5.617,0,0,1,6.491,5.479,5.736,5.736,0,0,1,8.614,4.1a10.171,10.171,0,0,1,3.429-.635c1.949-.087,2.534-.108,7.464-.108s5.522.022,7.464.108A10.128,10.128,0,0,1,30.4,4.1a5.682,5.682,0,0,1,2.122,1.379A5.744,5.744,0,0,1,33.9,7.6a10.17,10.17,0,0,1,.635,3.429c.087,1.949.108,2.534.108,7.464s-.022,5.508-.108,7.457Zm0,0" transform="translate(-1.012 0)"/><path class="a" d="M291.416,280.91a9.493,9.493,0,1,0,9.493,9.493A9.5,9.5,0,0,0,291.416,280.91Zm0,15.65a6.158,6.158,0,1,1,6.158-6.158A6.159,6.159,0,0,1,291.416,296.56Zm0,0" transform="translate(-272.936 -271.923)"/><path class="a" d="M822.229,202.129a2.216,2.216,0,1,1-2.216-2.216A2.216,2.216,0,0,1,822.229,202.129Zm0,0" transform="translate(-791.665 -193.517)"/></g></g></svg>