<svg xmlns="http://www.w3.org/2000/svg" width="22.409" height="18.076" viewBox="0 0 22.409 18.076"><defs><style>.a{fill:#53f1d7;fill-rule:evenodd;}</style></defs><g transform="translate(-2.08 22.076) rotate(-90)"><g transform="translate(4 2.08)"><path class="a" d="M18.687,2.08H7.389A3.389,3.389,0,0,0,4,5.469v17.67a1.356,1.356,0,0,0,2.079,1.13l6.959-4.361L20,24.28a1.356,1.356,0,0,0,2.079-1.13V5.469A3.389,3.389,0,0,0,18.687,2.08ZM19.817,21.5l-6.056-3.807a1.344,1.344,0,0,0-1.446,0L6.26,21.5V5.469a1.13,1.13,0,0,1,1.13-1.13h11.3a1.13,1.13,0,0,1,1.13,1.13Z" transform="translate(-4 -2.08)"/></g></g></svg>